<?xml version="1.0" standalone="no"?>
<!DOCTYPE svg PUBLIC "-//W3C//DTD SVG 20010904//EN"
 "http://www.w3.org/TR/2001/REC-SVG-20010904/DTD/svg10.dtd">
<svg version="1.0" xmlns="http://www.w3.org/2000/svg"
 width="1736.000000pt" height="1736.000000pt" viewBox="0 0 1736.000000 1736.000000"
 preserveAspectRatio="xMidYMid meet">
<metadata>
Created by potrace 1.11, written by Peter Selinger 2001-2013
</metadata>
<g transform="translate(0.000000,1736.000000) scale(0.100000,-0.100000)"
fill="#000000" stroke="none">
<path d="M4750 11017 c-492 -425 -896 -779 -898 -788 -1 -8 166 -507 373
-1108 206 -602 373 -1097 370 -1099 -2 -3 -566 293 -1252 656 -686 363 -1309
692 -1385 731 l-136 72 -907 -782 c-498 -429 -905 -785 -903 -789 2 -4 176
-512 388 -1128 211 -617 387 -1118 391 -1114 3 4 27 84 52 177 266 987 732
2702 843 3102 35 123 38 131 53 113 15 -17 144 -125 496 -415 87 -71 190 -157
230 -190 39 -33 156 -130 260 -215 103 -85 249 -206 324 -268 75 -62 178 -147
229 -190 52 -42 126 -104 165 -137 74 -62 123 -102 235 -192 62 -50 67 -52 88
-38 20 13 88 15 453 15 399 0 429 -1 436 -17 21 -55 265 -775 265 -783 0 -7
-424 -10 -1241 -10 l-1242 0 -656 -389 c-361 -213 -727 -430 -813 -481 -87
-51 -158 -97 -158 -101 0 -5 996 -9 2228 -9 l2229 0 13 -42 c12 -40 13 -41 20
-18 10 34 259 953 371 1370 50 184 101 374 114 421 14 47 83 301 155 565 225
828 283 1035 291 1032 8 -3 206 -166 339 -278 42 -36 146 -121 230 -190 84
-69 187 -154 230 -190 42 -36 121 -101 175 -145 54 -44 132 -109 175 -145 43
-36 102 -85 132 -110 170 -139 259 -212 328 -270 153 -130 392 -325 401 -328
5 -2 57 24 115 57 l106 61 2204 0 2204 0 731 488 732 487 -3084 5 -3084 5
-670 354 c-368 195 -713 377 -765 406 -52 29 -165 89 -250 133 l-155 80 -140
-121 c-710 -620 -1423 -1227 -1473 -1255 -81 -44 -87 -34 -52 93 15 55 65 237
110 405 231 861 750 2767 773 2841 l11 36 127 -106 c70 -58 211 -176 314 -261
104 -85 221 -182 260 -215 40 -33 143 -118 230 -190 87 -71 231 -191 320 -265
90 -74 193 -160 230 -190 37 -30 141 -116 230 -190 90 -74 195 -161 234 -194
39 -32 71 -60 71 -61 0 -2 -156 -97 -347 -212 l-348 -208 4510 -3 4510 -2 730
487 730 488 -4407 3 -4407 2 -658 349 c-1713 907 -2215 1171 -2226 1171 -7 -1
-415 -348 -907 -773z"/>
<path d="M6820 6454 c-151 -90 -517 -307 -812 -481 -296 -175 -538 -321 -538
-325 0 -5 993 -8 2208 -8 l2207 0 735 490 735 490 -2130 -1 -2130 0 -275 -165z"/>
</g>
</svg>
